<?xml version="1.0" encoding="UTF-8"?>
<svg version="1.1" xmlns="http://www.w3.org/2000/svg" width="638" height="586">
<path d="M0 0 C210.54 0 421.08 0 638 0 C638 193.38 638 386.76 638 586 C427.46 586 216.92 586 0 586 C0 392.62 0 199.24 0 0 Z " fill="#242424" transform="translate(0,0)"/>
<path d="M0 0 C210.54 0 421.08 0 638 0 C638 193.38 638 386.76 638 586 C427.46 586 216.92 586 0 586 C0 392.62 0 199.24 0 0 Z M29 134 C29 272.93 29 411.86 29 555 C217.1 555 405.2 555 599 555 C599 416.07 599 277.14 599 134 C410.9 134 222.8 134 29 134 Z " fill="#5DCAC6" transform="translate(0,0)"/>
<path d="M0 0 C188.1 0 376.2 0 570 0 C570 24.42 570 48.84 570 74 C381.9 74 193.8 74 0 74 C0 49.58 0 25.16 0 0 Z " fill="#262626" transform="translate(29,35)"/>
<path d="M0 0 C210.54 0 421.08 0 638 0 C638 193.38 638 386.76 638 586 C427.46 586 216.92 586 0 586 C0 392.62 0 199.24 0 0 Z M4 10 C4 198.1 4 386.2 4 580 C208.6 580 413.2 580 624 580 C624 391.9 624 203.8 624 10 C419.4 10 214.8 10 4 10 Z " fill="#262727" transform="translate(0,0)"/>
<path d="M0 0 C4.57127802 -0.19886761 9.1400035 -0.34341878 13.71459961 -0.43945312 C15.26778039 -0.47950603 16.82066285 -0.53397031 18.37280273 -0.60351562 C31.19781305 -1.16345187 31.19781305 -1.16345187 35.26904297 1.46484375 C36.93359375 3.40625 36.93359375 3.40625 38.37158203 5.63354492 C40.35561651 8.51679023 42.75673194 10.30324785 45.45703125 12.51953125 C48.56099626 15.59070584 49.87593368 17.16246514 50.52099609 21.51708984 C50.40420192 24.88288555 50.18509901 28.19812084 49.86795044 31.5486145 C49.10683517 40.57014092 48.87280653 49.15201062 54.65049744 56.557724 C60.37913263 63.11919931 67.07079428 68.75001459 74 74 C72.505932 77.7432138 70.43498119 79.42667318 67.24609375 81.82421875 C55.98888337 90.51423956 55.98888337 90.51423956 50.18994141 102.94189453 C49.87035551 107.22072812 50.02981555 111.47001412 50.25 115.75 C50.98137949 133.03639809 50.98137949 133.03639809 45.51635742 140.35864258 C38.7945237 147.48465468 32.21734499 149.70495737 22.56300354 150.08641052 C15.34573703 150.20572031 8.17799395 149.72587932 1 149 C4.16829436 145.01815637 7.12003676 141.78322176 11.26953125 138.828125 C19.80951796 132.39936696 19.80951796 132.39936696 24.43292236 123.05151367 C25.29835066 116.18748523 25.06215879 109.25759953 24.54223633 102.37597656 C23.86794447 91.43905768 23.86794447 91.43905768 27.32446289 87.04516602 C30.11491748 84.76181512 32.91838583 82.86345996 36 81 C37.25019839 80.00503499 38.4845788 78.98913301 39.6875 77.9375 C40.450625 77.298125 41.21375 76.65875 42 76 C40.67050044 72.98047929 39.30473431 71.12872821 36.77734375 69.01953125 C35.84631836 68.23352539 35.84631836 68.23352539 34.89648438 67.43164062 C34.25001953 66.89732422 33.60355469 66.36300781 32.9375 65.8125 C31.65485386 64.73578912 30.37229708 63.65897177 29.08984375 62.58203125 C28.23700806 61.87397339 28.23700806 61.87397339 27.36694336 61.15161133 C26 60 26 60 25 59 C25.13736375 56.76683608 25.32309356 54.53663588 25.52734375 52.30859375 C26.92276292 34.79256997 26.92276292 34.79256997 20.15061951 19.20957947 C14.77334551 13.08899146 8.58645384 7.79748484 2.18725586 2.77709961 C1.46546143 2.19065674 0.74366699 1.60421387 0 1 C0 0.67 0 0.34 0 0 Z " fill="#55BBD4" transform="translate(376,257)"/>
<path d="M0 0 C-3.1695419 3.97835642 -6.1388056 7.22949329 -10.26953125 10.20703125 C-18.76291225 16.62392922 -18.76291225 16.62392922 -23.43292236 25.89709473 C-24.29531682 32.53384253 -24.06419313 39.23714937 -23.54223633 45.8918457 C-22.86712072 56.46843367 -22.86712072 56.46843367 -26.32885742 61.1484375 C-29.10534678 63.67614571 -31.91936354 65.85971941 -35 68 C-36.19845888 69.02903937 -37.38870601 70.0679128 -38.5625 71.125 C-41 73 -41 73 -43 73 C-43 73.66 -43 74.32 -43 75 C-42.47664063 75.21527344 -41.95328125 75.43054688 -41.4140625 75.65234375 C-38.03204369 77.54036396 -35.2866829 80.0245264 -32.375 82.5625 C-28.44179069 86.14573678 -28.44179069 86.14573678 -24 89 C-24.09015381 89.93980713 -24.18030762 90.87961426 -24.27319336 91.84790039 C-26.32516627 111.76624115 -26.32516627 111.76624115 -19.30418396 129.69645691 C-14.191809 135.56973425 -8.25797689 140.59495589 -2.09545898 145.33056641 C-1.40395752 145.88147949 -0.71245605 146.43239258 0 147 C0 147.33 0 147.66 0 148 C-30.19984058 151.05397857 -30.19984058 151.05397857 -40.27807617 143.59692383 C-45.36499288 138.80446742 -48.63376737 134.43109347 -49.39208984 127.32666016 C-49.42371845 122.44451647 -49.28062276 117.59373966 -49.00164795 112.72003174 C-48.56700458 103.85416082 -49.11718246 97.62813343 -55.12109375 90.75390625 C-60.53980601 84.92717263 -66.66636169 79.79874752 -73 75 C-71.505932 71.2567862 -69.43498119 69.57332682 -66.24609375 67.17578125 C-54.98888337 58.48576044 -54.98888337 58.48576044 -49.18994141 46.05810547 C-48.87035551 41.77927188 -49.02981555 37.52998588 -49.25 33.25 C-49.98137949 15.96360191 -49.98137949 15.96360191 -44.51635742 8.64135742 C-32.68473005 -3.90169605 -15.79194007 -1.59697024 0 0 Z " fill="#64D9B7" transform="translate(251,258)"/>
<path d="M0 0 C8.25 0 16.5 0 25 0 C25 8.25 25 16.5 25 25 C16.75 25 8.5 25 0 25 C0 16.75 0 8.5 0 0 Z " fill="#67DDAE" transform="translate(153,59)"/>
<path d="M0 0 C8.25 0 16.5 0 25 0 C25 8.25 25 16.5 25 25 C16.75 25 8.5 25 0 25 C0 16.75 0 8.5 0 0 Z " fill="#6BE6A8" transform="translate(103,59)"/>
<path d="M0 0 C7.92 0 15.84 0 24 0 C24 8.25 24 16.5 24 25 C16.08 25 8.16 25 0 25 C0 16.75 0 8.5 0 0 Z " fill="#6FEFA1" transform="translate(54,59)"/>
<path d="M0 0 C0.9075 0.53625 1.815 1.0725 2.75 1.625 C3.86375 2.058125 4.9775 2.49125 6.125 2.9375 C9.44027425 6.33170935 9.125 7.73459387 9.125 12.375 C9.02856417 14.45985081 8.912371 16.5442457 8.75 18.625 C7.36518672 19.49691947 5.96654754 20.34690384 4.5625 21.1875 C3.78519531 21.66316406 3.00789063 22.13882812 2.20703125 22.62890625 C-0.8172245 23.85495588 -2.16987534 23.59972299 -5.25 22.625 C-7.48828125 21.65234375 -7.48828125 21.65234375 -9.5625 20.5625 C-10.25988281 20.20027344 -10.95726562 19.83804687 -11.67578125 19.46484375 C-12.19527344 19.18769531 -12.71476562 18.91054688 -13.25 18.625 C-13.84724929 14.15226641 -14.11326779 10.07293465 -13.25 5.625 C-9.62220167 1.54021158 -5.47316 -0.63151846 0 0 Z " fill="#5CC7C3" transform="translate(316.25,357.375)"/>
<path d="M0 0 C2.21078337 1.25229559 3.49352447 2.17802244 4.98046875 4.265625 C5.58718187 8.65631206 5.38667375 12.86184703 4.98046875 17.265625 C1.47436489 19.86520771 -1.84281403 21.93976621 -6.01953125 23.265625 C-10.52104875 22.53420274 -13.20919574 20.8429479 -16.01953125 17.265625 C-17.41781677 12.63380422 -17.41532766 8.89873071 -16.01953125 4.265625 C-11.24117199 -1.3924322 -6.78953035 -2.46892013 0 0 Z " fill="#59C2CD" transform="translate(369.01953125,358.734375)"/>
<path d="M0 0 C0.70640625 0.24234375 1.4128125 0.4846875 2.140625 0.734375 C4.63830902 1.9369636 6.19847117 2.86819089 8 5 C8.70483126 9.40519537 8.46631259 13.57650694 8 18 C4.49389614 20.59958271 1.17671722 22.67414121 -3 24 C-7.5015175 23.26857774 -10.18966449 21.5773229 -13 18 C-14.39795587 13.36927117 -14.40104057 9.63105459 -13 5 C-9.47217325 0.89989746 -5.37871646 -2.02769073 0 0 Z " fill="#60D1BE" transform="translate(267,358)"/>
</svg>
